<svg id="Logo" xmlns="http://www.w3.org/2000/svg" width="496.50868mm" height="100mm" viewBox="0 0 1407.42619 283.46457">
  <g>
    <g>
      <path d="M375.03218,216.44953h-32.0229V67.01183h51.4473a99.653,99.653,0,0,1,25.4062,2.9891,54.58177,54.58177,0,0,1,19.3189,9.0741,39.60822,39.60822,0,0,1,12.2745,15.5846q4.27065,9.49935,4.2724,22.3079a54.55687,54.55687,0,0,1-4.37849,22.4168,43.951,43.951,0,0,1-12.70131,16.544,58.00112,58.00112,0,0,1-20.2806,10.2475,95.12731,95.12731,0,0,1-26.8974,3.5222h-16.4386Zm-.6415-74.9322h17.5065q14.51355,0,22.6288-5.658,8.1093-5.6502,8.11111-17.6116,0-12.5943-7.89981-17.8242-7.8969-5.2281-22.6285-5.231h-17.7181Z" fill="#fff"/>
      <path d="M552.64477,219.01243a83.50923,83.50923,0,0,1-29.56639-5.0165,62.335,62.335,0,0,1-22.9491-14.8377,66.50533,66.50533,0,0,1-14.8374-24.2323q-5.2329-14.4096-5.2285-33.1938,0-18.7842,5.4429-33.1966a68.95211,68.95211,0,0,1,15.0494-24.2295,62.69592,62.69592,0,0,1,22.7378-14.8374,79.19008,79.19008,0,0,1,28.49819-5.0165q17.29155,0,30.8491,5.3371a61.77289,61.77289,0,0,1,22.8408,15.261,66.48093,66.48093,0,0,1,14.199,24.3385,99.96781,99.96781,0,0,1,4.907,32.3434q0,19.85055-5.443,34.4771a64.72594,64.72594,0,0,1-15.1552,24.1228,61.06244,61.06244,0,0,1-22.8432,14.0906A85.83407,85.83407,0,0,1,552.64477,219.01243Zm1.06832-28.1809a36.86426,36.86426,0,0,0,14.94348-2.9891,30.83136,30.83136,0,0,0,11.7422-9.0741,43.28063,43.28063,0,0,0,7.5789-15.2606,78.60786,78.60786,0,0,0,2.6687-21.7756q0-25.40565-10.674-37.2541-10.6797-11.8449-28.1807-11.8481a37.11585,37.11585,0,0,0-14.83739,2.989,32.38811,32.38811,0,0,0-12.0604,9.0741,43.60081,43.60081,0,0,0-8.0055,15.3696,73.30435,73.30435,0,0,0-2.8832,21.6695,68.34756,68.34756,0,0,0,3.0951,21.7756,44.25506,44.25506,0,0,0,8.432,15.2606,33.57761,33.57761,0,0,0,12.5954,9.0741A40.50859,40.50859,0,0,0,553.71309,190.83153Z" fill="#fff"/>
      <path d="M768.04727,210.53123q-2.9955,1.48935-6.51118,2.9683a62.997,62.997,0,0,1-8.32612,2.7566,80.9025,80.9025,0,0,1-11.098,2.0147,125.51382,125.51382,0,0,1-14.4141.7416,93.31022,93.31022,0,0,1-31.0611-4.9107,65.41339,65.41339,0,0,1-23.9084-14.4109,64.01567,64.01567,0,0,1-15.3702-23.5874q-5.44545-14.0916-5.4458-32.4496,0-19.2156,5.4458-34.0507a64.10492,64.10492,0,0,1,40.5613-40.0283,99.3524,99.3524,0,0,1,32.9857-5.1227,102.63367,102.63367,0,0,1,21.88092,2.1333,77.95209,77.95209,0,0,1,15.69078,4.9101l-7.04978,26.8983a79.34576,79.34576,0,0,0-13.87522-3.4161,83.23709,83.23709,0,0,0-12.169-1.0654,68.59732,68.59732,0,0,0-20.1689,2.7805,40.67612,40.67612,0,0,0-15.58788,8.6656,39.56068,39.56068,0,0,0-10.14172,14.9768q-3.6306,9.0999-3.6249,21.503,0,23.74965,13.3434,35.7325,13.3332,11.9805,35.968,11.9812a67.25455,67.25455,0,0,0,12.381-1.3885,65.78145,65.78145,0,0,0,14.0935-4.3754Z" fill="#fff"/>
      <path d="M889.72537,183.788h-57.4262l-10.674,32.6615h-31.5934l51.0234-149.4377H882.682l50.38252,149.4377h-32.6644Zm-48.6702-28.18h39.9202l-19.854-62.7639Z" fill="#fff"/>
      <path d="M1005.86669,216.44953h-32.0232V96.47213h-42.4853V67.01183h116.7765v29.4603h-42.268Z" fill="#fff"/>
      <path d="M1135.65969,219.01243a83.53228,83.53228,0,0,1-29.5665-5.0165,62.29227,62.29227,0,0,1-22.9459-14.8377,66.46082,66.46082,0,0,1-14.8381-24.2323q-5.23665-14.4096-5.2341-33.1938,0-18.7842,5.4461-33.1966a69.0319,69.0319,0,0,1,15.049-24.2295,62.685,62.685,0,0,1,22.735-14.8374,79.2428,79.2428,0,0,1,28.5013-5.0165q17.2908,0,30.8489,5.3371a61.77705,61.77705,0,0,1,22.8433,15.261,66.548,66.548,0,0,1,14.1961,24.3385,99.87249,99.87249,0,0,1,4.9076,32.3434q0,19.85055-5.4397,34.4771a64.73725,64.73725,0,0,1-15.1587,24.1228,61.1113,61.1113,0,0,1-22.843,14.0906A85.83474,85.83474,0,0,1,1135.65969,219.01243Zm1.0707-28.1809a36.86016,36.86016,0,0,0,14.941-2.9891,30.77426,30.77426,0,0,0,11.7391-9.0741,43.28233,43.28233,0,0,0,7.582-15.2606,78.52073,78.52073,0,0,0,2.6688-21.7756q0-25.40565-10.6747-37.2541-10.674-11.8449-28.1801-11.8481a37.13,37.13,0,0,0-14.838,2.989,32.38584,32.38584,0,0,0-12.0597,9.0741,43.50519,43.50519,0,0,0-8.0059,15.3696,73.21663,73.21663,0,0,0-2.8807,21.6695,68.36106,68.36106,0,0,0,3.092,21.7756,44.27033,44.27033,0,0,0,8.4358,15.2606,33.49677,33.49677,0,0,0,12.5926,9.0741A40.48553,40.48553,0,0,0,1136.73039,190.83153Z" fill="#fff"/>
      <path d="M1407.42619,216.44953H1375.191l-8.1142-99.2701-30.7405,99.2701H1305.808l-30.3166-98.8405-8.1086,98.8405h-32.2352l14.9407-149.4377h38.2136l33.7293,112.719,33.3059-112.719h36.9308Z" fill="#fff"/>
    </g>
    <g>
      <path d="M171.505,141.7573a29.77266,29.77266,0,1,1-29.7411-29.7979A29.77449,29.77449,0,0,1,171.505,141.7573Z" fill="#fff"/>
      <g>
        <path d="M142.01072,0a141.60134,141.60134,0,0,0-60.1035,13.2941c24.2796-2.5042,49.4957,7.9535,68.1166,26.7475l.0185-.0079c9.3097,9.1945,17.4723,21.1171,24.4068,35.466,39.49759,7.0714,66.32189-12.5469,76.893-24.1562l.0063-.0082A141.74524,141.74524,0,0,0,142.01072,0Z" fill="#fff"/>
        <path d="M56.51752,28.5777a142.229,142.229,0,0,0-44.832,56.8882c11.7967,2.9026,47.1168,14.3772,63.3214,58.0513,4.8741-1.5853,15.3805-7.6979,22.6701-31.2966,8.9443-28.9092,25.2299-56.8082,46.3557-69.1593C120.74762,20.497,85.39842,10.6273,56.51752,28.5777Z" fill="#fff"/>
      </g>
      <g>
        <path d="M264.94581,212.6102a140.98506,140.98506,0,0,0,18.5189-58.6101c-9.96739,22.2434-31.6473,38.8154-57.26139,45.5172l-.00221.0201c-12.6312,3.4517-27.05539,4.5473-42.97029,3.3682-25.8832,30.6123-22.2768,63.6127-17.4908,78.5565l.0037.0098A141.65109,141.65109,0,0,0,264.94581,212.6102Z" fill="#fff"/>
        <path d="M282.90151,124.4075A142.0599,142.0599,0,0,0,255.967,57.2034c-8.4163,8.7477-36.0302,33.5469-82.01959,25.7196-1.0617,5.0066-1.0124,17.1464,15.8144,35.2478,20.60659,22.1873,36.66589,50.2169,36.81719,74.6569C257.79632,183.9789,284.03261,158.3521,282.90151,124.4075Z" fill="#fff"/>
      </g>
      <g>
        <path d="M19.04012,212.5901a141.25053,141.25053,0,0,0,41.5845,45.3157c-14.3122-19.7392-17.8483-46.7686-10.8551-72.2647l-.0161-.0119c3.3211-12.6462,9.5829-25.6644,18.5632-38.8342-13.6143-37.6836-44.0455-51.066-59.4018-54.4003l-.0104-.0016A141.19969,141.19969,0,0,0,19.04012,212.5901Z" fill="#fff"/>
        <path d="M86.57792,272.2152a142.65044,142.65044,0,0,0,71.7661,10.3156c-3.3804-11.6501-11.0866-47.9239,18.6982-83.7707-3.8124-3.4212-14.3681-9.4485-38.4845-3.9515-29.5506,6.722-61.8958,6.5917-83.1729-5.4976C47.45262,220.7245,56.56552,256.2209,86.57792,272.2152Z" fill="#fff"/>
      </g>
    </g>
  </g>
</svg>
