<svg id="AtomSymbolWhite" xmlns="http://www.w3.org/2000/svg" xmlns:xlink="http://www.w3.org/1999/xlink" viewBox="0 0 283.46457 283.46457" preserveAspectRatio="xMidYMid meet">
  <defs>
    <radialGradient id="radial-gradient-white" cx="132.19337" cy="125.1496" r="41.90097" gradientTransform="translate(0.00195)" gradientUnits="userSpaceOnUse">
      <stop offset="0" stop-color="#ffffff" stop-opacity="0.9"/>
      <stop offset="1" stop-color="#ffffff"/>
    </radialGradient>
    <linearGradient id="linear-gradient-white-1" x1="41.2266" y1="121.70678" x2="111.69673" y2="13.1923" gradientTransform="matrix(1, 0, 0, 1, 0, 0)" xlink:href="#radial-gradient-white"/>
    <linearGradient id="linear-gradient-white-2" x1="69.35488" y1="-3.35431" x2="244.41279" y2="67.37367" gradientTransform="matrix(1, 0, 0, 1, 0, 0)" xlink:href="#radial-gradient-white"/>
    <linearGradient id="linear-gradient-white-3" x1="-1303.18902" y1="-7225.80058" x2="-1232.72162" y2="-7334.31086" gradientTransform="translate(5780.60218 -4502.69113) rotate(-120.00073)" xlink:href="#radial-gradient-white"/>
    <linearGradient id="linear-gradient-white-4" x1="-1275.0664" y1="-7350.85763" x2="-1099.99128" y2="-7280.12269" gradientTransform="translate(5780.60218 -4502.69113) rotate(-120.00073)" xlink:href="#radial-gradient-white"/>
    <linearGradient id="linear-gradient-white-5" x1="5732.38301" y1="-4716.56337" x2="5802.85472" y2="-4825.08028" gradientTransform="translate(-1009.03883 -7257.84029) rotate(120.00073)" xlink:href="#radial-gradient-white"/>
    <linearGradient id="linear-gradient-white-6" x1="5760.51056" y1="-4841.62621" x2="5935.57849" y2="-4770.89417" gradientTransform="translate(-1009.03883 -7257.84029) rotate(120.00073)" xlink:href="#radial-gradient-white"/>
  </defs>
  <g>
    <path d="M161.67063,119.6322a29.76378,29.76378,0,1,0,2.18138,42.0493A29.78707,29.78707,0,0,0,161.67063,119.6322Z" fill="url(#radial-gradient-white)"/>
    <path d="M56.48461,28.5019a142.21063,142.21063,0,0,0-44.8625,56.9749c11.7774,2.903,47.0392,14.3789,63.217,58.0582,4.8662-1.5854,15.3555-7.6988,22.6329-31.3003,9.7589-31.5986,28.272-61.9911,52.2799-72.1966C125.81121,16.3521,94.26791,10.7751,56.48461,28.5019Z" fill="url(#linear-gradient-white-1)"/>
    <path d="M250.88341,51.3498l.0066-.0078A141.72164,141.72164,0,0,0,56.484,28.5022c52.4526-24.6098,92.8779-4.3082,117.6334,47.0071C213.54981,82.5817,240.33,62.9608,250.88341,51.3498Z" fill="url(#linear-gradient-white-2)"/>
    <path d="M86.31411,272.163a142.193,142.193,0,0,0,71.769,10.3678c-3.375-11.6518-11.0684-47.93,18.6672-83.7815-3.806-3.4214-14.3447-9.4494-38.4213-3.9518-32.2423,7.3471-67.8175,6.5094-88.6586-9.1811C41.12981,218.1944,52.07191,248.3027,86.31411,272.163Z" fill="url(#linear-gradient-white-3)"/>
    <path d="M8.9,92.3708l-.0103-.0016a141.74517,141.74517,0,0,0,77.4247,179.7941c-47.5371-33.1241-50.1694-78.287-18.1105-125.3856C54.61191,109.0893,24.23131,95.7055,8.9,92.3708Z" fill="url(#linear-gradient-white-4)"/>
    <path d="M282.39881,124.4972A142.222,142.222,0,0,0,255.492,57.1545c-8.4024,8.7488-35.9708,33.5511-81.8842,25.723-1.0598,5.0071-1.0108,17.1484,15.7884,35.2523,22.4837,24.2516,39.5455,55.4818,36.3787,81.3778C258.25651,190.6156,278.85781,166.0846,282.39881,124.4972Z" fill="url(#linear-gradient-white-5)"/>
    <path d="M165.41381,281.4415l.0038.0097a141.74138,141.74138,0,0,0,116.9812-156.9546c-4.9154,57.7338-42.7084,82.5952-99.5229,78.3784C157.03551,233.4911,160.63591,266.4958,165.41381,281.4415Z" fill="url(#linear-gradient-white-6)"/>
  </g>
</svg>
